<mxfile host="app.diagrams.net" modified="2022-10-19T12:52:26.646Z" agent="5.0 (X11; Linux x86_64) AppleWebKit/537.36 (KHTML, like Gecko) Chrome/102.0.0.0 Safari/537.36" etag="EsKgbGoSeWl1hPW1xTCA" version="20.4.1" type="github">
  <diagram id="gw-0qxgwykfqlHwGaKgw" name="Page-1">
    <mxGraphModel dx="979" dy="583" grid="1" gridSize="10" guides="1" tooltips="1" connect="1" arrows="1" fold="1" page="1" pageScale="1" pageWidth="850" pageHeight="1100" math="0" shadow="0">
      <root>
        <mxCell id="0" />
        <mxCell id="1" parent="0" />
        <mxCell id="izHELIHp1wS4RytDVB9c-17" value="" style="whiteSpace=wrap;html=1;aspect=fixed;fillColor=#FFCFCF;opacity=20;" vertex="1" parent="1">
          <mxGeometry x="90" y="330" width="610" height="610" as="geometry" />
        </mxCell>
        <mxCell id="izHELIHp1wS4RytDVB9c-52" value="" style="ellipse;whiteSpace=wrap;html=1;fillColor=#f5f5f5;fontColor=#333333;strokeColor=#666666;opacity=30;" vertex="1" parent="1">
          <mxGeometry x="254.99999999999997" y="350" width="300" height="130" as="geometry" />
        </mxCell>
        <mxCell id="izHELIHp1wS4RytDVB9c-50" value="" style="rounded=0;whiteSpace=wrap;html=1;fillColor=#d5e8d4;strokeColor=#82b366;opacity=30;" vertex="1" parent="1">
          <mxGeometry x="236" y="960" width="510" height="105" as="geometry" />
        </mxCell>
        <mxCell id="izHELIHp1wS4RytDVB9c-2" value="App1" style="shape=image;html=1;verticalAlign=bottom;verticalLabelPosition=top;labelBackgroundColor=#ffffff;imageAspect=0;aspect=fixed;image=https://cdn1.iconfinder.com/data/icons/unicons-line-vol-5/24/react-128.png;fillColor=#99CCFF;labelPosition=center;align=center;imageBackground=#C9C9C9;" vertex="1" parent="1">
          <mxGeometry x="380" y="30" width="50" height="50" as="geometry" />
        </mxCell>
        <mxCell id="izHELIHp1wS4RytDVB9c-5" value="Get Flight Information&lt;br&gt;FastAPI" style="sketch=0;aspect=fixed;html=1;points=[];align=center;image;fontSize=12;image=img/lib/mscae/Docker.svg;flipV=0;labelPosition=center;verticalLabelPosition=top;verticalAlign=bottom;" vertex="1" parent="1">
          <mxGeometry x="330" y="415" width="50" height="41" as="geometry" />
        </mxCell>
        <mxCell id="izHELIHp1wS4RytDVB9c-7" value="" style="rounded=1;whiteSpace=wrap;html=1;" vertex="1" parent="1">
          <mxGeometry x="199" y="184.02" width="410" height="110" as="geometry" />
        </mxCell>
        <mxCell id="izHELIHp1wS4RytDVB9c-8" value="API Gateway" style="outlineConnect=0;dashed=0;verticalLabelPosition=bottom;verticalAlign=top;align=center;html=1;shape=mxgraph.aws3.api_gateway;fillColor=#D9A741;gradientColor=none;aspect=fixed;" vertex="1" parent="1">
          <mxGeometry x="379.83" y="208.63" width="50" height="60.79" as="geometry" />
        </mxCell>
        <mxCell id="izHELIHp1wS4RytDVB9c-10" value="CloudFront&lt;br style=&quot;font-size: 12px;&quot;&gt;Distribution" style="outlineConnect=0;dashed=0;verticalLabelPosition=middle;verticalAlign=middle;align=left;html=1;shape=mxgraph.aws3.cloudfront;fillColor=#F58536;gradientColor=none;aspect=fixed;labelPosition=right;fontSize=12;spacingRight=4;spacingLeft=10;" vertex="1" parent="1">
          <mxGeometry x="377" y="110" width="54" height="65.67" as="geometry" />
        </mxCell>
        <mxCell id="izHELIHp1wS4RytDVB9c-11" value="API Gateway&lt;br&gt;Cache&lt;br&gt;" style="outlineConnect=0;dashed=0;verticalLabelPosition=bottom;verticalAlign=top;align=center;html=1;shape=mxgraph.aws3.cache_node;fillColor=#2E73B8;gradientColor=none;aspect=fixed;" vertex="1" parent="1">
          <mxGeometry x="269.83" y="215.39999999999998" width="45" height="47.25" as="geometry" />
        </mxCell>
        <mxCell id="izHELIHp1wS4RytDVB9c-12" value="CloudWatch&lt;br&gt;Monitoring&lt;br&gt;" style="outlineConnect=0;dashed=0;verticalLabelPosition=bottom;verticalAlign=top;align=center;html=1;shape=mxgraph.aws3.cloudwatch;fillColor=#759C3E;gradientColor=none;aspect=fixed;" vertex="1" parent="1">
          <mxGeometry x="493.83" y="212.64999999999998" width="44.35" height="50" as="geometry" />
        </mxCell>
        <mxCell id="izHELIHp1wS4RytDVB9c-13" value="" style="endArrow=classic;startArrow=classic;html=1;rounded=0;" edge="1" parent="1">
          <mxGeometry width="50" height="50" relative="1" as="geometry">
            <mxPoint x="314.83" y="238.51999999999987" as="sourcePoint" />
            <mxPoint x="374.83" y="238.51999999999987" as="targetPoint" />
          </mxGeometry>
        </mxCell>
        <mxCell id="izHELIHp1wS4RytDVB9c-14" value="" style="endArrow=classic;startArrow=classic;html=1;rounded=0;" edge="1" parent="1">
          <mxGeometry width="50" height="50" relative="1" as="geometry">
            <mxPoint x="434" y="268.15999999999985" as="sourcePoint" />
            <mxPoint x="494" y="268.15999999999985" as="targetPoint" />
          </mxGeometry>
        </mxCell>
        <mxCell id="izHELIHp1wS4RytDVB9c-15" value="" style="endArrow=classic;html=1;rounded=0;" edge="1" parent="1" target="izHELIHp1wS4RytDVB9c-10">
          <mxGeometry width="50" height="50" relative="1" as="geometry">
            <mxPoint x="404" y="80" as="sourcePoint" />
            <mxPoint x="204" y="360" as="targetPoint" />
          </mxGeometry>
        </mxCell>
        <mxCell id="izHELIHp1wS4RytDVB9c-16" value="" style="endArrow=classic;html=1;rounded=0;" edge="1" parent="1" source="izHELIHp1wS4RytDVB9c-10" target="izHELIHp1wS4RytDVB9c-8">
          <mxGeometry width="50" height="50" relative="1" as="geometry">
            <mxPoint x="399" y="180" as="sourcePoint" />
            <mxPoint x="229" y="380" as="targetPoint" />
          </mxGeometry>
        </mxCell>
        <mxCell id="izHELIHp1wS4RytDVB9c-18" value="" style="sketch=0;points=[[0,0,0],[0.25,0,0],[0.5,0,0],[0.75,0,0],[1,0,0],[0,1,0],[0.25,1,0],[0.5,1,0],[0.75,1,0],[1,1,0],[0,0.25,0],[0,0.5,0],[0,0.75,0],[1,0.25,0],[1,0.5,0],[1,0.75,0]];outlineConnect=0;fontColor=#232F3E;gradientColor=#945DF2;gradientDirection=north;fillColor=#5A30B5;strokeColor=#ffffff;dashed=0;verticalLabelPosition=bottom;verticalAlign=top;align=center;html=1;fontSize=12;fontStyle=0;aspect=fixed;shape=mxgraph.aws4.resourceIcon;resIcon=mxgraph.aws4.athena;" vertex="1" parent="1">
          <mxGeometry x="296" y="520" width="50" height="50" as="geometry" />
        </mxCell>
        <mxCell id="izHELIHp1wS4RytDVB9c-19" value="" style="endArrow=classic;startArrow=classic;html=1;rounded=0;entryX=0.43;entryY=1.11;entryDx=0;entryDy=0;entryPerimeter=0;" edge="1" parent="1" source="izHELIHp1wS4RytDVB9c-18" target="izHELIHp1wS4RytDVB9c-5">
          <mxGeometry width="50" height="50" relative="1" as="geometry">
            <mxPoint x="396" y="670" as="sourcePoint" />
            <mxPoint x="446" y="620" as="targetPoint" />
          </mxGeometry>
        </mxCell>
        <mxCell id="izHELIHp1wS4RytDVB9c-20" value="Events/Phases/KTI/etc" style="sketch=0;points=[[0,0,0],[0.25,0,0],[0.5,0,0],[0.75,0,0],[1,0,0],[0,1,0],[0.25,1,0],[0.5,1,0],[0.75,1,0],[1,1,0],[0,0.25,0],[0,0.5,0],[0,0.75,0],[1,0.25,0],[1,0.5,0],[1,0.75,0]];outlineConnect=0;fontColor=#232F3E;gradientColor=#60A337;gradientDirection=north;fillColor=#277116;strokeColor=#ffffff;dashed=0;verticalLabelPosition=middle;verticalAlign=middle;align=right;html=1;fontSize=12;fontStyle=0;aspect=fixed;shape=mxgraph.aws4.resourceIcon;resIcon=mxgraph.aws4.s3;labelPosition=left;" vertex="1" parent="1">
          <mxGeometry x="226" y="630" width="60" height="60" as="geometry" />
        </mxCell>
        <mxCell id="izHELIHp1wS4RytDVB9c-21" value="" style="endArrow=classic;startArrow=classic;html=1;rounded=0;entryX=0.5;entryY=1;entryDx=0;entryDy=0;entryPerimeter=0;exitX=0.5;exitY=0;exitDx=0;exitDy=0;exitPerimeter=0;" edge="1" parent="1" source="izHELIHp1wS4RytDVB9c-20" target="izHELIHp1wS4RytDVB9c-18">
          <mxGeometry width="50" height="50" relative="1" as="geometry">
            <mxPoint x="396" y="670" as="sourcePoint" />
            <mxPoint x="446" y="620" as="targetPoint" />
          </mxGeometry>
        </mxCell>
        <mxCell id="izHELIHp1wS4RytDVB9c-25" value="" style="endArrow=classic;html=1;rounded=0;startArrow=none;" edge="1" parent="1" target="izHELIHp1wS4RytDVB9c-34">
          <mxGeometry width="50" height="50" relative="1" as="geometry">
            <mxPoint x="564" y="960" as="sourcePoint" />
            <mxPoint x="398" y="860" as="targetPoint" />
          </mxGeometry>
        </mxCell>
        <mxCell id="izHELIHp1wS4RytDVB9c-28" value="Flights" style="sketch=0;points=[[0,0,0],[0.25,0,0],[0.5,0,0],[0.75,0,0],[1,0,0],[0,1,0],[0.25,1,0],[0.5,1,0],[0.75,1,0],[1,1,0],[0,0.25,0],[0,0.5,0],[0,0.75,0],[1,0.25,0],[1,0.5,0],[1,0.75,0]];outlineConnect=0;fontColor=#232F3E;gradientColor=#60A337;gradientDirection=north;fillColor=#277116;strokeColor=#ffffff;dashed=0;verticalLabelPosition=middle;verticalAlign=middle;align=right;html=1;fontSize=12;fontStyle=0;aspect=fixed;shape=mxgraph.aws4.resourceIcon;resIcon=mxgraph.aws4.s3;labelPosition=left;" vertex="1" parent="1">
          <mxGeometry x="365" y="630" width="60" height="60" as="geometry" />
        </mxCell>
        <mxCell id="izHELIHp1wS4RytDVB9c-29" value="TimeSeries" style="sketch=0;points=[[0,0,0],[0.25,0,0],[0.5,0,0],[0.75,0,0],[1,0,0],[0,1,0],[0.25,1,0],[0.5,1,0],[0.75,1,0],[1,1,0],[0,0.25,0],[0,0.5,0],[0,0.75,0],[1,0.25,0],[1,0.5,0],[1,0.75,0]];outlineConnect=0;fontColor=#232F3E;gradientColor=#60A337;gradientDirection=north;fillColor=#277116;strokeColor=#ffffff;dashed=0;verticalLabelPosition=middle;verticalAlign=middle;align=left;html=1;fontSize=12;fontStyle=0;aspect=fixed;shape=mxgraph.aws4.resourceIcon;resIcon=mxgraph.aws4.s3;labelPosition=right;" vertex="1" parent="1">
          <mxGeometry x="534.35" y="630" width="60" height="60" as="geometry" />
        </mxCell>
        <mxCell id="izHELIHp1wS4RytDVB9c-30" value="" style="endArrow=classic;startArrow=classic;html=1;rounded=0;exitX=0.5;exitY=0;exitDx=0;exitDy=0;exitPerimeter=0;entryX=1.11;entryY=1.024;entryDx=0;entryDy=0;entryPerimeter=0;" edge="1" parent="1" source="izHELIHp1wS4RytDVB9c-29" target="izHELIHp1wS4RytDVB9c-5">
          <mxGeometry width="50" height="50" relative="1" as="geometry">
            <mxPoint x="396" y="720" as="sourcePoint" />
            <mxPoint x="396" y="620" as="targetPoint" />
          </mxGeometry>
        </mxCell>
        <mxCell id="izHELIHp1wS4RytDVB9c-31" value="" style="endArrow=classic;startArrow=classic;html=1;rounded=0;exitX=0.5;exitY=0;exitDx=0;exitDy=0;exitPerimeter=0;entryX=0.5;entryY=1;entryDx=0;entryDy=0;entryPerimeter=0;" edge="1" parent="1" source="izHELIHp1wS4RytDVB9c-28" target="izHELIHp1wS4RytDVB9c-18">
          <mxGeometry width="50" height="50" relative="1" as="geometry">
            <mxPoint x="396" y="720" as="sourcePoint" />
            <mxPoint x="396" y="630" as="targetPoint" />
          </mxGeometry>
        </mxCell>
        <mxCell id="izHELIHp1wS4RytDVB9c-34" value="HDF RAW DATA&lt;br&gt;" style="sketch=0;points=[[0,0,0],[0.25,0,0],[0.5,0,0],[0.75,0,0],[1,0,0],[0,1,0],[0.25,1,0],[0.5,1,0],[0.75,1,0],[1,1,0],[0,0.25,0],[0,0.5,0],[0,0.75,0],[1,0.25,0],[1,0.5,0],[1,0.75,0]];outlineConnect=0;fontColor=#232F3E;gradientColor=#60A337;gradientDirection=north;fillColor=#277116;strokeColor=#ffffff;dashed=0;verticalLabelPosition=middle;verticalAlign=middle;align=left;html=1;fontSize=12;fontStyle=0;aspect=fixed;shape=mxgraph.aws4.resourceIcon;resIcon=mxgraph.aws4.s3;labelPosition=right;" vertex="1" parent="1">
          <mxGeometry x="539.85" y="811" width="49" height="49" as="geometry" />
        </mxCell>
        <mxCell id="izHELIHp1wS4RytDVB9c-38" value="" style="endArrow=classic;html=1;rounded=0;entryX=0.5;entryY=1;entryDx=0;entryDy=0;entryPerimeter=0;exitX=0.5;exitY=0;exitDx=0;exitDy=0;" edge="1" parent="1" source="izHELIHp1wS4RytDVB9c-46" target="izHELIHp1wS4RytDVB9c-20">
          <mxGeometry width="50" height="50" relative="1" as="geometry">
            <mxPoint x="296" y="990" as="sourcePoint" />
            <mxPoint x="446" y="840" as="targetPoint" />
          </mxGeometry>
        </mxCell>
        <mxCell id="izHELIHp1wS4RytDVB9c-39" value="" style="endArrow=classic;html=1;rounded=0;entryX=0.5;entryY=1;entryDx=0;entryDy=0;entryPerimeter=0;exitX=0.5;exitY=0;exitDx=0;exitDy=0;" edge="1" parent="1" source="izHELIHp1wS4RytDVB9c-46" target="izHELIHp1wS4RytDVB9c-28">
          <mxGeometry width="50" height="50" relative="1" as="geometry">
            <mxPoint x="296" y="990" as="sourcePoint" />
            <mxPoint x="446" y="840" as="targetPoint" />
          </mxGeometry>
        </mxCell>
        <mxCell id="izHELIHp1wS4RytDVB9c-40" value="" style="outlineConnect=0;dashed=0;verticalLabelPosition=bottom;verticalAlign=top;align=center;html=1;shape=mxgraph.aws3.lambda_function;fillColor=#F58534;gradientColor=none;" vertex="1" parent="1">
          <mxGeometry x="544.85" y="730" width="39" height="40" as="geometry" />
        </mxCell>
        <mxCell id="izHELIHp1wS4RytDVB9c-42" value="" style="endArrow=classic;startArrow=classic;html=1;rounded=0;exitX=0.5;exitY=0;exitDx=0;exitDy=0;exitPerimeter=0;entryX=0.5;entryY=1;entryDx=0;entryDy=0;entryPerimeter=0;" edge="1" parent="1" source="izHELIHp1wS4RytDVB9c-34" target="izHELIHp1wS4RytDVB9c-40">
          <mxGeometry width="50" height="50" relative="1" as="geometry">
            <mxPoint x="396" y="890" as="sourcePoint" />
            <mxPoint x="446" y="840" as="targetPoint" />
          </mxGeometry>
        </mxCell>
        <mxCell id="izHELIHp1wS4RytDVB9c-43" value="" style="endArrow=classic;html=1;rounded=0;exitX=0.5;exitY=0;exitDx=0;exitDy=0;exitPerimeter=0;entryX=0.5;entryY=1;entryDx=0;entryDy=0;entryPerimeter=0;" edge="1" parent="1" source="izHELIHp1wS4RytDVB9c-40" target="izHELIHp1wS4RytDVB9c-29">
          <mxGeometry width="50" height="50" relative="1" as="geometry">
            <mxPoint x="396" y="720" as="sourcePoint" />
            <mxPoint x="446" y="670" as="targetPoint" />
          </mxGeometry>
        </mxCell>
        <mxCell id="izHELIHp1wS4RytDVB9c-46" value="FDC Database" style="image;html=1;image=img/lib/clip_art/computers/Database_128x128.png;fillColor=#FFCFCF;" vertex="1" parent="1">
          <mxGeometry x="286" y="960" width="55" height="50" as="geometry" />
        </mxCell>
        <mxCell id="izHELIHp1wS4RytDVB9c-47" value="" style="shape=image;html=1;verticalAlign=top;verticalLabelPosition=bottom;labelBackgroundColor=#ffffff;imageAspect=0;aspect=fixed;image=https://cdn2.iconfinder.com/data/icons/maternity-and-pregnancy-2/512/388_dashboard_admin_monitor_monitoring_processing_data_economy_media-128.png;fillColor=#FFCFCF;" vertex="1" parent="1">
          <mxGeometry x="540.85" y="960" width="48" height="48" as="geometry" />
        </mxCell>
        <mxCell id="izHELIHp1wS4RytDVB9c-48" value="Flight Raw Data" style="rounded=0;whiteSpace=wrap;html=1;fillColor=#f5f5f5;fontColor=#333333;strokeColor=#666666;" vertex="1" parent="1">
          <mxGeometry x="636" y="992.5" width="80" height="40" as="geometry" />
        </mxCell>
        <mxCell id="izHELIHp1wS4RytDVB9c-49" value="" style="endArrow=classic;html=1;rounded=0;exitX=0;exitY=0.5;exitDx=0;exitDy=0;entryX=1;entryY=0.5;entryDx=0;entryDy=0;" edge="1" parent="1" source="izHELIHp1wS4RytDVB9c-48" target="izHELIHp1wS4RytDVB9c-47">
          <mxGeometry width="50" height="50" relative="1" as="geometry">
            <mxPoint x="406" y="850" as="sourcePoint" />
            <mxPoint x="456" y="800" as="targetPoint" />
          </mxGeometry>
        </mxCell>
        <mxCell id="izHELIHp1wS4RytDVB9c-51" value="Kubernetes" style="sketch=0;points=[[0,0,0],[0.25,0,0],[0.5,0,0],[0.75,0,0],[1,0,0],[0,1,0],[0.25,1,0],[0.5,1,0],[0.75,1,0],[1,1,0],[0,0.25,0],[0,0.5,0],[0,0.75,0],[1,0.25,0],[1,0.5,0],[1,0.75,0]];outlineConnect=0;fontColor=#232F3E;gradientColor=#F78E04;gradientDirection=north;fillColor=#D05C17;strokeColor=#ffffff;dashed=0;verticalLabelPosition=bottom;verticalAlign=top;align=center;html=1;fontSize=12;fontStyle=0;aspect=fixed;shape=mxgraph.aws4.resourceIcon;resIcon=mxgraph.aws4.eks_anywhere;" vertex="1" parent="1">
          <mxGeometry x="443" y="374" width="56" height="56" as="geometry" />
        </mxCell>
        <mxCell id="izHELIHp1wS4RytDVB9c-54" value="" style="endArrow=classic;startArrow=classic;html=1;rounded=0;exitX=0.5;exitY=1;exitDx=0;exitDy=0;entryX=0.5;entryY=0;entryDx=0;entryDy=0;" edge="1" parent="1" source="izHELIHp1wS4RytDVB9c-7" target="izHELIHp1wS4RytDVB9c-52">
          <mxGeometry width="50" height="50" relative="1" as="geometry">
            <mxPoint x="410" y="430" as="sourcePoint" />
            <mxPoint x="440" y="350" as="targetPoint" />
          </mxGeometry>
        </mxCell>
      </root>
    </mxGraphModel>
  </diagram>
</mxfile>
